[img]http://img138.imageshack.us/img138/4060/shuttledvd.jpg[/img]
[code]
  Shuttle DVDRiP AC3 XViD - IMAGiNE
********************************************************************************************************************

Ripper ...........: IMAGiNE                                        IMDB Rating.......:5.6/10                             
Video Codec.......: XVID                                         Release Date......:12/02/09
Audio Codec.......:ac3                                           Theatre Date......:08/03/09
Audio Bitrate.....:448                                              Runtime.......:1h 42mn
Subtitles.........:NIL                                                 Language..........:ENGLISH
Resolution...... 720 x 400                                     IMDb URL..........:http://www.imdb.com/title/tt0880648/


DETAILS:
Video
Format                           : MPEG-4 Visual
Format profile                   : Streaming Video@L1
Format settings, BVOP            : Yes
Format settings, QPel            : No
Format settings, GMC             : No warppoints
Format settings, Matrix          : Default
Muxing mode                      : Packed bitstream
Codec ID                         : XVID
Codec ID/Hint                    : XviD
Duration                         : 1h 42mn
Bit rate                         : 1 682 Kbps
Width                            : 720 pixels
Height                           : 400 pixels
Display aspect ratio             : 16/9
Frame rate                       : 25.000 fps
Resolution                       : 24 bits
Colorimetry                      : 4:2:0
Scan type                        : Progressive
Bits/(Pixel*Frame)               : 0.234
Stream size                      : 1.20 GiB (79%)
Writing library                  : XviD 1.1.2 (UTC 2006-11-01)

Audio
Format                           : AC-3
Format/Info                      : Audio Coding 3
Codec ID                         : 2000
Duration                         : 1h 42mn
Bit rate mode                    : Constant
Bit rate                         : 448 Kbps
Channel(s)                       : 6 channels
Channel positions                : Front: L C R, Surround: L R, LFE
Sampling rate                    : 48.0 KHz
Stream size                      : 328 MiB (21%)
Alignment                        : Aligned on interleaves
Interleave, duration             : 40 ms (1.00 video frame)
Interleave, preload duration     : 512 ms





SOURCES:

VIDEO:Shuttle russian dvd9 ............Thanks
AUDIO:Shuttle russian dvd9 ............Thanks

NOTES:

IMAGiNE bringing you another release..........Shuttle

Right for this,we just done a quick rip of the russian dvd9 and added a few tweaks here and there 
The source looked dull,lacked colour mainly ......other not too bad.
So we made script to give it some life and colour and also needed to use the rgb eq to balance the colours and
a white balance.....also added the normal stuff like crop,resize,sharpness etc.....
The audio we just muxed off the dvd9 as it came with both a english and russian audio track 

Enjoy folks 
[/code]
Screens:
[img]http://img263.imageshack.us/img263/5080/33619213.png[/img]
[img]http://img42.imageshack.us/img42/6023/27543587.png[/img]
[img]http://img834.imageshack.us/img834/1351/93963183.png[/img]
[img]http://img257.imageshack.us/img257/7329/88841278.png[/img]
[img]http://img200.imageshack.us/img200/2912/88660477.png[/img]